<svg width="118" height="106" viewBox="0 0 118 106" fill="none" xmlns="http://www.w3.org/2000/svg">
<path d="M56.76 91V23.8H84.12C87.8 23.8 91.128 24.728 94.104 26.584C97.08 28.44 99.432 30.936 101.16 34.072C102.92 37.176 103.8 40.6 103.8 44.344C103.8 47.224 103.32 49.912 102.36 52.408C101.4 54.872 100.024 57.064 98.232 58.984C96.472 60.872 94.392 62.392 91.992 63.544L107.928 91H91.32L76.152 64.888H71.16V91H56.76ZM71.16 50.488H82.392C83.672 50.488 84.84 50.168 85.896 49.528C86.952 48.856 87.8 47.976 88.44 46.888C89.08 45.8 89.4 44.6 89.4 43.288C89.4 41.976 89.08 40.776 88.44 39.688C87.8 38.6 86.952 37.736 85.896 37.096C84.84 36.424 83.672 36.088 82.392 36.088H71.16V50.488Z" fill="#2D5A27"/>
<path d="M29.184 91L4.8 23.8H20.064L38.496 74.488L56.928 23.8H72.192L47.808 91H29.184Z" fill="white"/>
</svg>
